# xmcd CD database file
#
# Track frame offsets:
#	150
#	2205
#	16359
#	32664
#	47884
#	61934
#	76914
#	91300
#	104432
#	116629
#	135214
#	148079
#	163483
#	177960
#	192324
#	207520
#	221709
#	236983
#
# Disc length: 3394 seconds
#
# Revision: 2
# Processed by: cddbd v1.5.2PL0 Copyright (c) Steve Scherf et al.
# Submitted via: CDex 1.70beta2
#
DISCID=060d4012
DTITLE=Varios - Barretão 2003
DYEAR=2003
DGENRE=Country
TTITLE0=Abertura - Johny Barreto
TTITLE1=Bom demais da conta - Trio Alto Astral
TTITLE2=Ele não bebe, não fuma, não foge - Brunno and Marlow
TTITLE3=Manuela - Agnaldo e Adriano
TTITLE4=Alma transparente - Chico Rey and Paraná
TTITLE5=A malvada - Juliano Cesar
TTITLE6=Agito do meu povo - Marco Brasil
TTITLE7=O chifre - Banda Caipira Country
TTITLE8=Mulher boa - Dois a Um
TTITLE9=Como eu chorei - Roni and Marcos
TTITLE10=Fio de cabelo- Marciano
TTITLE11=Vivendo longe de meu bem - Ronaldo Adriano
TTITLE12=Tá pra lá de bom - Pedro Bento e Zé da Estrada
TTITLE13=Chalana - As Galvão
TTITLE14=É por você que canto - Sela de Prata
TTITLE15=Você é doida de mais - Trio Parada Dura
TTITLE16=Tudo é festa - Roberto e Meirinho
TTITLE17=Caminheiro - Liu e Léu
EXTD=YEAR: 2003
EXTT0=
EXTT1=
EXTT2=
EXTT3=
EXTT4=
EXTT5=
EXTT6=
EXTT7=
EXTT8=
EXTT9=
EXTT10=
EXTT11=
EXTT12=
EXTT13=
EXTT14=
EXTT15=
EXTT16=
EXTT17=
PLAYORDER=
